<?xml version="1.0" standalone="no"?>
<!DOCTYPE svg PUBLIC "-//W3C//DTD SVG 20010904//EN"
 "http://www.w3.org/TR/2001/REC-SVG-20010904/DTD/svg10.dtd">
<svg version="1.0" xmlns="http://www.w3.org/2000/svg"
 width="500.000000pt" height="500.000000pt" viewBox="0 0 500.000000 500.000000"
 preserveAspectRatio="xMidYMid meet">
<metadata>
Created by potrace 1.14, written by Peter Selinger 2001-2017
</metadata>
<g transform="translate(0.000000,500.000000) scale(0.100000,-0.100000)"
fill="#000000" stroke="none">
<path d="M1985 4062 c-36 -4 -55 -19 -55 -42 0 -9 49 -86 110 -171 60 -85 115
-162 122 -172 7 -11 43 -60 79 -110 36 -51 211 -297 389 -547 178 -250 328
-456 332 -458 4 -2 8 -10 8 -17 0 -8 10 -21 22 -29 20 -14 93 -16 595 -16 506
0 573 2 587 16 9 8 16 23 16 32 0 13 -182 279 -317 462 -29 39 -299 419 -528
743 -151 212 -217 298 -234 303 -25 7 -1069 12 -1126 6z"/>
<path d="M1826 2484 c-9 -8 -16 -23 -16 -32 0 -9 52 -89 115 -177 62 -88 129
-181 147 -208 18 -26 41 -57 50 -70 10 -12 99 -137 198 -277 100 -140 188
-264 196 -275 8 -11 81 -114 163 -230 82 -115 161 -225 176 -242 l27 -33 584
0 c580 0 583 0 594 21 7 11 9 27 6 35 -5 13 -338 484 -596 844 -54 74 -110
154 -126 176 -113 163 -322 452 -336 466 -17 17 -58 18 -592 18 -509 0 -576
-2 -590 -16z"/>
<path d="M816 1707 c-16 -12 -17 -41 -17 -357 -1 -400 -1 -381 9 -398 13 -19
920 -18 939 1 11 11 14 86 15 377 1 343 0 364 -17 376 -27 20 -902 20 -929 1z"/>
</g>
</svg>
